<svg fill="none" height="200" viewBox="0 0 188 215" width="173" xmlns="http://www.w3.org/2000/svg"><path clip-rule="evenodd" d="m7.83113 0h19.93377l36.308 34.8841h3.5596v-2.1358h52.6825v2.1358h2.847l37.02-34.8841h19.222l8.543 11.3907v32.0365l-13.526 28.4768v22.7814l-5.696 11.3906v26.341l-27.053 39.156v13.526l-23.493 18.51-7.831 11.391h-32.7487l-7.8311-11.391-23.4934-18.51v-13.526l-27.0529-39.156v-26.341l-5.6954-11.3906v-22.7814l-13.5265-28.4768v-32.0365zm108.92387 135.265v-31.325l19.222-12.8142 12.814 9.9672v11.39zm-64.7848-44.1392-12.8146 9.9672v11.39l32.0365 22.782v-31.325zm38.4437 94.6852-14.2384-12.102h35.5965l-14.2389 12.102v9.255h-7.1192z" fill="#c80f2e" fill-rule="evenodd"/></svg>