<svg width="277" height="277" viewBox="0 0 277 277" fill="none" xmlns="http://www.w3.org/2000/svg">
<circle cx="138.5" cy="138.5" r="138.5" fill="black"/>
<path fill-rule="evenodd" clip-rule="evenodd" d="M168.186 151.678H244.311C237.894 206.224 195.015 242.978 139.593 242.978C79.2126 242.978 34 199.807 34 138.843C34 77.879 79.2126 35 139.593 35C189.181 35 228.56 64.1694 241.103 108.507H208.725C203.151 78.5732 188.811 56.0907 168.186 45.5056V151.678ZM145.398 155.47V238.944C148.512 238.682 151.553 238.206 154.513 237.521V155.47H145.398ZM168.186 155.47V232.575C191.019 221.028 206.957 194.62 210.767 155.47H168.186ZM154.513 40.4824V151.678H145.398V39.0371C148.526 39.3047 151.567 39.7895 154.513 40.4824ZM113.494 44.1732V233.728C84.7872 220.735 67.5448 185.537 67.5448 138.843C67.5448 89.4945 85.815 56.4836 113.494 44.1732Z" fill="white"/>
</svg>
